<svg width="100.38" height="78.874" version="1.1" viewBox="0 0 100.38 78.874" xml:space="preserve" xmlns="http://www.w3.org/2000/svg">
<style type="text/css">
	.st0{fill:#3F5364;}
</style>
<g transform="translate(-5.899e-7 -.00098827)"><g transform="matrix(2.3769 0 0 2.3769 -256.46 38.202)" stroke-width=".42072"><path class="st0" d="m107.9 5.4878h2.241v9.631h4.899v1.993h-7.14z"/><path class="st0" d="m122.96 12.446 4.234-6.958h1.577v11.624h-2.242v-6.476l-2.79 4.567h-1.561l-2.79-4.567v6.476h-2.241v-11.623h1.577z"/><path class="st0" d="m133.67 11.964v5.148h-2.241v-11.624h4.234c1.195 0 1.959 0.332 2.541 0.864 0.631 0.598 1.03 1.444 1.03 2.374s-0.399 1.777-1.03 2.374c-0.315 0.299-0.697 0.531-1.162 0.681l4.35 5.33h-2.773l-4.135-5.148zm1.86-1.993c0.648 0 0.93-0.133 1.129-0.349s0.332-0.548 0.332-0.88c0-0.349-0.133-0.681-0.332-0.897s-0.481-0.365-1.129-0.365h-1.86v2.491z"/><path class="st0" d="m150.13 5.4878v1.993h-3.072v9.631h-2.242v-9.631h-3.072v-1.993h8.386z"/></g>
		
			<path class="st0" d="m60.406 19.474c-1.319 0-2.645 0.657-3.941 1.952l-7.531 7.531c-1.393 1.393-3.251 2.16-5.234 2.16s-3.841-0.767-5.234-2.16l-0.656-0.657c-1.048-1.333-2.559-2.072-4.185-2.072-1.505 0-2.942 0.651-3.944 1.787l-0.029 0.032-0.034 0.027c-0.143 0.139-5.98 5.967-15.599 15.581h72.375l-22.733-22.734c-0.03-0.034-1.334-1.447-3.255-1.447z"/>
		
		<path class="st0" d="m10.61 43.656 33.743-33.744c3.219-3.217 8.454-3.217 11.673 0l33.743 33.743h10.61l-39.048-39.047c-6.143-6.143-16.139-6.143-22.283 0l-39.048 39.048z"/>
	</g>
</svg>
