<svg width="446" height="392" viewBox="0 0 446 392" fill="none" xmlns="http://www.w3.org/2000/svg">
<path d="M132.723 277.111C132.723 299.861 117.955 314.628 96.6801 314.628C75.4509 314.628 60.6367 300.231 60.6367 277.111C60.6367 254.361 75.4048 239.964 96.6801 239.964C117.955 239.917 132.723 253.946 132.723 277.111ZM116.802 277.111C116.802 262.345 108.818 252.469 96.6801 252.469C84.1733 252.469 76.5585 262.345 76.5585 277.111C76.5585 291.878 84.5425 302.123 96.6801 302.123C109.233 302.123 116.802 291.878 116.802 277.111Z" fill="#3D3C3A"/>
<path d="M186.95 276.696L171.028 313.474H159.259L137.661 241.44H154.737L167.982 291.14L181.642 259.668L176.335 241.44H192.257L206.702 291.14L222.208 241.44H236.653L211.225 313.474H198.718L186.95 276.696Z" fill="#3D3C3A"/>
<path d="M240.438 296.031C245.745 299.446 253.314 302.861 262.036 302.861C268.867 302.861 272.651 299.815 272.651 294.878C272.651 290.309 269.974 288.417 265.451 286.525L255.206 281.588C245.33 276.65 241.915 269.82 241.915 261.883C241.915 248.593 252.899 240.286 268.082 240.286C275.281 240.286 282.112 242.548 285.896 244.855V259.253C280.589 255.099 274.912 252.423 267.713 252.423C261.252 252.423 257.098 255.469 257.098 260.406C257.098 265.713 260.513 267.974 264.667 269.866L274.543 274.435C282.527 277.85 288.573 283.526 288.573 293.77C288.573 307.799 276.804 315.367 262.405 315.367C254.421 315.367 247.637 313.475 242.284 311.214L240.438 296.031Z" fill="#3D3C3A"/>
<path d="M370.12 277.111C370.12 299.861 355.352 314.628 334.076 314.628C312.478 314.628 298.033 300.231 298.033 277.111C298.033 254.361 312.801 239.964 334.076 239.964C355.352 239.917 370.12 253.946 370.12 277.111ZM354.198 277.111C354.198 262.345 346.214 252.469 334.076 252.469C321.57 252.469 313.955 262.345 313.955 277.111C313.955 291.878 321.939 302.123 334.076 302.123C346.629 302.123 354.198 291.878 354.198 277.111Z" fill="#3D3C3A"/>
<path d="M394.764 267.974V313.474H381.103V250.946L373.535 241.44H392.872L425.869 283.895V241.44H439.53V313.474H430.807L394.764 267.974Z" fill="#3D3C3A"/>
<path d="M0.779297 241.44H58.7902L54.2213 253.946H36.0381V313.474H20.8547V253.946H0.779297V241.44Z" fill="#3D3C3A"/>
<path d="M28.0544 391.97C14.0247 391.97 6.8252 384.771 6.8252 370.742V337.748H19.332V369.958C19.332 377.526 22.0087 381.356 28.0544 381.356C34.1 381.356 37.9305 377.572 37.9305 371.111V337.378H49.3297V370.004C48.9143 384.032 41.3456 391.97 28.0544 391.97Z" fill="#3D3C3A"/>
<path d="M97.4645 391.231L72.8203 360.129V391.231H61.4212V345.731L55.3755 337.748H70.9281L93.6802 366.958V337.748H105.033V391.231H97.4645Z" fill="#3D3C3A"/>
<path d="M130.832 337.748H118.325V391.231H130.832V337.748Z" fill="#3D3C3A"/>
<path d="M156.26 391.231L138.815 337.748H152.845L163.09 371.527L174.813 337.748H186.95L167.244 391.231H156.26Z" fill="#3D3C3A"/>
<path d="M195.302 391.231V337.748H228.3L224.515 348.361H207.809V358.975H224.884L221.1 369.635H207.809V380.617H229.453L225.623 391.231H195.302Z" fill="#3D3C3A"/>
<path d="M268.128 391.231L256.36 372.265H251.422V391.231H238.915V338.901H239.653C243.807 337.748 249.114 337.009 255.575 337.009C268.866 337.009 276.435 343.055 276.435 353.714C276.435 360.175 272.282 365.851 267.713 368.896L282.481 391.646H268.082V391.231H268.128ZM259.775 362.805C262.036 360.913 263.928 357.867 263.928 354.083C263.928 351.038 262.775 347.254 254.468 347.254H251.791V362.805H259.775Z" fill="#3D3C3A"/>
<path d="M302.603 391.97C297.664 391.97 292.357 390.816 287.835 388.924H287.465L286.312 376.049L287.835 376.788C290.511 378.68 295.818 381.356 302.603 381.356C306.756 381.356 309.433 379.464 309.433 376.418C309.433 373.742 307.91 372.634 304.864 371.111L297.665 367.697C290.834 364.282 287.419 359.713 287.419 352.93C287.419 343.054 295.403 336.64 307.125 336.64C312.433 336.64 317.371 338.532 320.417 340.055L320.786 340.424V352.93L319.632 351.776C315.478 348.73 311.279 347.207 307.125 347.207C302.972 347.207 300.295 349.099 300.295 352.145C300.295 355.191 302.187 356.714 305.233 358.19L312.433 361.236C317.001 363.128 323.047 366.912 323.047 375.634C322.355 385.555 314.371 391.97 302.603 391.97Z" fill="#3D3C3A"/>
<path d="M344.691 337.748H332.185V391.231H344.691V337.748Z" fill="#3D3C3A"/>
<path d="M366.334 391.231V348.361H351.936V337.748H395.548L391.717 348.361H378.841V391.231H366.334Z" fill="#3D3C3A"/>
<path d="M415.255 391.231V369.219L397.441 337.748H411.471L422.455 357.083L433.069 337.748H445.945L427.762 368.85V391.231H415.255Z" fill="#3D3C3A"/>
<path d="M317.786 0.64856V123.121C317.786 142.087 309.802 149.655 291.619 149.655C273.02 149.655 265.452 142.087 265.452 123.121V35.9042L212.748 1.01753V124.644C212.748 191.741 273.066 197.047 291.619 197.047C310.217 197.047 370.49 191.741 370.49 124.644V35.9042L317.786 0.64856Z" fill="#FDC013"/>
<path d="M55.3755 0.64856V46.1488H107.71V161.838L160.413 196.724V46.1488H212.748V0.64856H55.3755Z" fill="#3D3C3A"/>
<path d="M212.749 0.64856V46.1488H193.412L212.749 0.64856Z" fill="#D8D9D9"/>
</svg>
