<svg id="svg1007" width="40" height="40" version="1.1" viewBox="0 0 135.47 135.47" xmlns="http://www.w3.org/2000/svg">
    <style id="style965"/>
    <path id="logo-j" d="m22.404 3.1035v25.463h30.66v57.73c0 8.6821-1.4259 14.707-4.2767 18.077-2.7213 3.2396-6.803 4.8601-12.246 4.8601-3.4988 0-6.8682-1.0366-10.108-3.11-3.11-2.0733-5.8956-5.313-8.3577-9.7189l-18.077 13.411c4.2763 7.5159 9.6541 13.153 16.133 16.911 6.4792 3.7579 14.383 5.6366 23.713 5.6366 9.2005 0 16.716-1.9436 22.548-5.8311 5.9609-4.0171 10.302-9.3301 13.023-15.939 2.8508-6.6088 4.2767-13.93 4.2767-21.964v-85.525h-26.63z" style="white-space:pre"/>
    <circle id="logo-dot" cx="118.87" cy="115.77" r="16.594" color="#000000" color-rendering="auto" fill-rule="evenodd" image-rendering="auto" shape-rendering="auto" solid-color="#000000" style="isolation:auto;mix-blend-mode:normal"/>
</svg>
