<?xml version="1.0" encoding="UTF-8" standalone="no"?>
<svg
   xmlns:dc="http://purl.org/dc/elements/1.1/"
   xmlns:cc="http://creativecommons.org/ns#"
   xmlns:rdf="http://www.w3.org/1999/02/22-rdf-syntax-ns#"
   xmlns:svg="http://www.w3.org/2000/svg"
   xmlns="http://www.w3.org/2000/svg"
   xmlns:sodipodi="http://sodipodi.sourceforge.net/DTD/sodipodi-0.dtd"
   xmlns:inkscape="http://www.inkscape.org/namespaces/inkscape"
   width="512"
   height="512"
   viewBox="0 0 135.46666 135.46666"
   version="1.1"
   id="svg8"
   inkscape:version="1.0.1 (3bc2e813f5, 2020-09-07)"
   sodipodi:docname="logo-scratch.svg">
  <style
     id="style942"></style>
  <defs
     id="defs2">
    <rect
       x="0"
       y="0"
       width="135.46666"
       height="135.46666"
       id="rect861" />
    <rect
       x="16.933333"
       y="21.166666"
       width="59.266665"
       height="33.866666"
       id="rect855" />
    <rect
       x="46.566665"
       y="46.566665"
       width="55.033332"
       height="42.333332"
       id="rect849" />
    <rect
       x="33.866666"
       y="33.866666"
       width="42.333332"
       height="21.166666"
       id="rect843" />
    <rect
       x="33.866666"
       y="33.866666"
       width="80.433331"
       height="33.866666"
       id="rect837" />
    <rect
       x="0"
       y="0"
       width="135.46666"
       height="135.46666"
       id="rect868" />
  </defs>
  <sodipodi:namedview
     id="base"
     pagecolor="#ffffff"
     bordercolor="#666666"
     borderopacity="1.0"
     inkscape:pageopacity="0.0"
     inkscape:pageshadow="2"
     inkscape:zoom="0.35"
     inkscape:cx="-491.50549"
     inkscape:cy="189.23348"
     inkscape:document-units="px"
     inkscape:current-layer="layer1"
     inkscape:document-rotation="0"
     showgrid="true"
     units="px"
     inkscape:window-width="2560"
     inkscape:window-height="1377"
     inkscape:window-x="2552"
     inkscape:window-y="-8"
     inkscape:window-maximized="1">
    <inkscape:grid
       type="xygrid"
       id="grid833"
       dotted="false"
       spacingx="1.0583333"
       spacingy="1.0583333"
       empspacing="4"
       color="#3fb9ff"
       opacity="0.1254902" />
  </sodipodi:namedview>
  <metadata
     id="metadata5">
    <rdf:RDF>
      <cc:Work
         rdf:about="">
        <dc:format>image/svg+xml</dc:format>
        <dc:type
           rdf:resource="http://purl.org/dc/dcmitype/StillImage" />
        <dc:title></dc:title>
      </cc:Work>
    </rdf:RDF>
  </metadata>
  <g
     inkscape:label="Layer 1"
     inkscape:groupmode="layer"
     id="layer1">
    <text
       xml:space="preserve"
       id="text835"
       style="fill:black;stroke:none;stroke-opacity:1;stroke-width:0.26458333px;stroke-linejoin:miter;stroke-linecap:butt;fill-opacity:1;font-family:'Avenir Next LT Pro';font-style:normal;font-weight:normal;font-size:10.58333333px;line-height:125%;letter-spacing:0px;word-spacing:0px;white-space:pre;shape-inside:url(#rect837);-inkscape-font-specification:'Avenir Next LT Pro';font-stretch:normal;font-variant:normal;" />
    <text
       xml:space="preserve"
       id="text841"
       style="fill:black;stroke:none;stroke-opacity:1;stroke-width:0.26458333px;stroke-linejoin:miter;stroke-linecap:butt;fill-opacity:1;font-family:'Avenir Next LT Pro';font-style:normal;font-weight:normal;font-size:10.58333333px;line-height:125%;letter-spacing:0px;word-spacing:0px;white-space:pre;shape-inside:url(#rect843);-inkscape-font-specification:'Avenir Next LT Pro';font-stretch:normal;font-variant:normal;" />
    <path
       id="path874"
       style="font-style:normal;font-variant:normal;font-weight:normal;font-stretch:normal;font-size:70.5556px;line-height:125%;font-family:Assistant;-inkscape-font-specification:Assistant;letter-spacing:0px;word-spacing:0px;white-space:pre;fill:#000000;fill-opacity:1;stroke:none;stroke-width:0.264583px;stroke-linecap:butt;stroke-linejoin:miter;stroke-opacity:1"
       d="m -240.13471,-215.69791 v 50.59633 h 10.1503 v -34.93585 l 4.02922,8.66924 14.02446,26.26661 10.8474,-6e-5 v -50.59633 h -10.07287 l 1e-4,19.21588 -1e-4,18.05368 -1.59412,0.72863 -2.43447,-11.73158 -14.02447,-26.26661 z"
       sodipodi:nodetypes="ccccccccccccccc" />
    <path
       d="m -210.9344,-123.82658 v -36.99733 l 9.06552,-0.27198 h -0.30993 c 0.25828,2.73774 0.54238,5.68209 0.85231,8.83306 0.36159,3.15098 0.54238,6.17281 0.54238,9.06551 v 19.37074 z"
       style="font-style:normal;font-variant:normal;font-weight:normal;font-stretch:normal;font-size:70.5556px;line-height:125%;font-family:Assistant;-inkscape-font-specification:Assistant;letter-spacing:0px;word-spacing:0px;white-space:pre;fill:#000000;fill-opacity:1;stroke:none;stroke-width:0.264583px;stroke-linecap:butt;stroke-linejoin:miter;stroke-opacity:1"
       id="path879"
       sodipodi:nodetypes="cccccscc" />
    <text
       xml:space="preserve"
       id="text866"
       style="font-style:normal;font-weight:normal;font-size:70.5556px;line-height:125%;font-family:sans-serif;letter-spacing:0px;word-spacing:0px;white-space:pre;shape-inside:url(#rect868);fill:#000000;fill-opacity:1;stroke:none;stroke-width:0.240928px;stroke-linecap:butt;stroke-linejoin:miter;stroke-opacity:1;"
       transform="matrix(1.0981831,0,0,1.0981831,-167.8072,-141.32223)"><tspan
         x="0"
         y="64.370016"><tspan
           style="font-style:normal;font-variant:normal;font-weight:normal;font-stretch:normal;font-size:70.5556px;font-family:Assistant;-inkscape-font-specification:Assistant;stroke-width:0.240928px">JON</tspan></tspan></text>
    <path
       d="m -225.318,-127.00163 v -19.37399 l 10.15027,0.003 v 19.37074 z"
       style="font-style:normal;font-variant:normal;font-weight:normal;font-stretch:normal;font-size:70.5556px;line-height:125%;font-family:Assistant;-inkscape-font-specification:Assistant;letter-spacing:0px;word-spacing:0px;white-space:pre;fill:#000000;fill-opacity:1;stroke:none;stroke-width:0.264583px;stroke-linecap:butt;stroke-linejoin:miter;stroke-opacity:1"
       id="path886"
       sodipodi:nodetypes="ccccc" />
    <path
       d="m -232.10107,-67.936979 v -50.597931 l 10.15026,0.003 v 50.594681 z"
       style="font-style:normal;font-variant:normal;font-weight:normal;font-stretch:normal;font-size:70.5556px;line-height:125%;font-family:Assistant;-inkscape-font-specification:Assistant;letter-spacing:0px;word-spacing:0px;white-space:pre;opacity:0.5;fill:#dc0000;fill-opacity:1;stroke:none;stroke-width:0.264583px;stroke-linecap:butt;stroke-linejoin:miter;stroke-opacity:1"
       id="path897"
       sodipodi:nodetypes="ccccc" />
    <path
       style="opacity:0.5;fill:none;fill-opacity:1;fill-rule:evenodd;stroke:#00ed00;stroke-width:8.46667;stroke-linecap:butt;stroke-linejoin:miter;stroke-miterlimit:4;stroke-dasharray:none;stroke-opacity:1"
       d="m -225.88337,-118.21923 26.45833,49.459401"
       id="path899" />
    <path
       d="m -203.19998,-67.937019 v -50.596301 l 10.15027,0.003 v 50.593051 z"
       style="font-style:normal;font-variant:normal;font-weight:normal;font-stretch:normal;font-size:70.5556px;line-height:125%;font-family:Assistant;-inkscape-font-specification:Assistant;letter-spacing:0px;word-spacing:0px;white-space:pre;opacity:0.5;fill:#dc4900;fill-opacity:1;stroke:none;stroke-width:0.264583px;stroke-linecap:butt;stroke-linejoin:miter;stroke-opacity:1"
       id="path901"
       sodipodi:nodetypes="ccccc" />
    <path
       d="m 11.149757,-71.212853 c -3.7191821,0 -6.8701562,-0.749002 -9.4529225,-2.247007 -2.58276572,-1.498003 -4.7264612,-3.745009 -6.4310865,-6.741018 l 7.2059162,-5.346325 c 0.981451,1.756281 2.0920402,3.047664 3.3317677,3.874148 1.291383,0.826485 2.634422,1.239728 4.029115,1.239728 2.1695231,0 3.7966651,-0.645691 4.8814271,-1.937074 1.136417,-1.343038 1.704625,-3.74501 1.704625,-7.205916 v -33.162713 h 10.615243 l -7.6e-5,34.092508 c -7e-6,3.20263 -0.568209,6.121155 -1.704626,8.755576 -1.084761,2.634421 -2.815213,4.752289 -5.191358,6.353604 -2.324489,1.549659 -5.320498,2.324489 -8.988025,2.324489 z"
       style="font-style:normal;font-variant:normal;font-weight:normal;font-stretch:normal;font-size:70.5556px;line-height:125%;font-family:Assistant;-inkscape-font-specification:Assistant;letter-spacing:0px;word-spacing:0px;white-space:pre;fill:#000000;fill-opacity:1;stroke:none;stroke-width:0.264583px;stroke-linecap:butt;stroke-linejoin:miter;stroke-opacity:1"
       id="path946"
       sodipodi:nodetypes="sscccscsccsccs" />
    <path
       d="m 59.266662,-71.212853 c -4.494013,0 -8.471472,-1.058934 -11.932378,-3.176802 -3.409251,-2.117868 -6.06948,-5.139704 -7.980726,-9.065507 -1.911247,-3.977459 -2.866948,-8.703921 -2.866948,-14.179384 0,-5.475464 0.955681,-10.150264 2.866928,-14.024414 1.911247,-3.87415 4.571495,-6.84433 7.980746,-8.91054 3.460906,-2.06622 7.438365,-3.09932 11.932378,-3.09932 4.494012,0 8.445643,1.0331 11.854894,3.09932 3.409251,2.06621 6.069499,5.03639 7.980746,8.91054 1.911247,3.87415 2.866975,8.54895 2.866975,14.024414 0,5.475463 -0.955728,10.201925 -2.866975,14.179384 -1.911247,3.925803 -4.571495,6.947639 -7.980746,9.065507 -3.409251,2.117868 -7.360882,3.176802 -11.854894,3.176802 z m 0,-9.220474 c 2.376145,0 4.442357,-0.697347 6.198637,-2.09204 1.807936,-1.394693 3.20263,-3.383422 4.184081,-5.966189 0.981451,-2.582765 1.472176,-5.630429 1.472176,-9.14299 0,-3.512564 -0.490725,-6.508574 -1.472176,-8.988024 -0.981451,-2.53111 -2.376145,-4.46818 -4.184081,-5.81122 -1.75628,-1.34304 -3.822492,-2.01456 -6.198637,-2.01456 -2.427801,0 -4.545669,0.67152 -6.353605,2.01456 -1.75628,1.34304 -3.125146,3.28011 -4.106597,5.81122 -0.929795,2.47945 -1.394693,5.47546 -1.394693,8.988024 0,3.512561 0.464898,6.560225 1.394693,9.14299 0.981451,2.582767 2.350317,4.571496 4.106597,5.966189 1.807936,1.394693 3.925804,2.09204 6.353605,2.09204 z"
       style="font-style:normal;font-variant:normal;font-weight:normal;font-stretch:normal;font-size:70.5556px;line-height:125%;font-family:Assistant;-inkscape-font-specification:Assistant;letter-spacing:0px;word-spacing:0px;white-space:pre;fill:#00e200;fill-opacity:1;stroke:none;stroke-width:0.264583px;stroke-linecap:butt;stroke-linejoin:miter;stroke-opacity:1"
       id="path948"
       sodipodi:nodetypes="sccsscsssscssscssccsccsccs" />
    <path
       id="path950"
       style="font-style:normal;font-variant:normal;font-weight:normal;font-stretch:normal;font-size:70.5556px;line-height:125%;font-family:Assistant;-inkscape-font-specification:Assistant;letter-spacing:0px;word-spacing:0px;white-space:pre;opacity:1;fill:#000000;fill-opacity:1;stroke:none;stroke-width:0.264583px;stroke-linecap:butt;stroke-linejoin:miter;stroke-opacity:1"
       d="m 91.731872,-122.73904 v 50.596392 h 10.150288 v -33.957092 l 18.16581,33.957092 h 2.82154 4.44417 3.46955 v -50.593292 l -10.15028,-0.003 v 33.741609 l -18.0511,-33.741609 h -4.045742 l -0.0011,5.3e-4 -1.70067,-5.3e-4 z"
       sodipodi:nodetypes="cccccccccccccccc" />
    <path
       id="path952"
       style="font-style:normal;font-variant:normal;font-weight:normal;font-stretch:normal;font-size:70.5556px;line-height:125%;font-family:Assistant;-inkscape-font-specification:Assistant;letter-spacing:0px;word-spacing:0px;white-space:pre;opacity:1;fill:#000000;fill-opacity:1;stroke:none;stroke-width:0.264583px;stroke-linecap:butt;stroke-linejoin:miter;stroke-opacity:1"
       d="M 25.982916,-122.73903 H 4.1966501 v 10.15029 H 25.982916 Z"
       sodipodi:nodetypes="ccccc" />
    <path
       id="path870"
       style="font-style:normal;font-variant:normal;font-weight:normal;font-stretch:normal;font-size:70.5556px;line-height:125%;font-family:Assistant;-inkscape-font-specification:Assistant;letter-spacing:0px;word-spacing:0px;white-space:pre;fill:#000000;fill-opacity:1;stroke:none;stroke-width:0.264583px;stroke-linecap:butt;stroke-linejoin:miter;stroke-opacity:1"
       d="M 22.403848,3.10351 V 28.566788 H 53.06427 v 57.729899 c 0,8.682122 -1.425875,14.707383 -4.276721,18.076563 -2.721264,3.2396 -6.802977,4.86009 -12.245501,4.86009 -3.498765,0 -6.86819,-1.03664 -10.107788,-3.10999 -3.110015,-2.07334 -5.895597,-5.31302 -8.357691,-9.718878 L 6.0595542e-7,109.81541 C 4.2762698,117.33128 9.6541159,122.96861 16.133312,126.72655 c 6.479197,3.75793 14.383139,5.63661 23.71318,5.63661 9.200458,0 16.716469,-1.94355 22.547745,-5.83107 5.960862,-4.0171 10.30206,-9.33007 13.023324,-15.93886 2.850847,-6.60878 4.276702,-13.930171 4.276722,-21.964377 V 3.10351 H 77.057466 53.06427 Z" />
    <circle
       style="color:#000000;clip-rule:nonzero;display:inline;overflow:visible;visibility:visible;isolation:auto;mix-blend-mode:normal;color-interpolation:sRGB;color-interpolation-filters:linearRGB;solid-color:#000000;solid-opacity:1;fill:#000000;fill-opacity:1;fill-rule:evenodd;stroke:none;stroke-width:3.96875;stroke-linecap:round;stroke-linejoin:miter;stroke-miterlimit:4;stroke-dasharray:none;stroke-dashoffset:8;stroke-opacity:1;color-rendering:auto;image-rendering:auto;shape-rendering:auto;text-rendering:auto;enable-background:accumulate"
       id="path954"
       cx="118.87314"
       cy="115.76964"
       r="16.593523" />
  </g>
</svg>
