<?xml version="1.0" encoding="utf-8"?>
<!-- Generator: Adobe Illustrator 24.1.1, SVG Export Plug-In . SVG Version: 6.00 Build 0)  -->
<svg version="1.1" id="Layer_1" xmlns="http://www.w3.org/2000/svg" xmlns:xlink="http://www.w3.org/1999/xlink" x="0px" y="0px"
	 viewBox="0 0 196.402 43.781" style="enable-background:new 0 0 196.402 43.781;" xml:space="preserve">
<style type="text/css">
	.st0{fill:#3F5364;}
</style>
<g>
	<g>
		<g>
			<path class="st0" d="M108.189,0h2.241v9.631h4.899v1.993h-7.14V0z"/>
			<path class="st0" d="M117.266,0h2.241v11.624h-2.241V0z"/>
			<path class="st0" d="M126.115,0c1.312,0,2.043,0.315,2.607,0.814c0.648,0.564,1.079,1.395,1.079,2.341
				c0,0.764-0.365,1.544-0.747,1.943c1.03,0.515,1.744,1.677,1.744,2.973c0,0.98-0.415,1.876-1.063,2.507
				c-0.648,0.648-1.544,1.046-3.039,1.046h-4.533V0H126.115z M124.404,4.483h1.578c0.697,0,1.013-0.166,1.245-0.415
				c0.199-0.216,0.332-0.515,0.332-0.83s-0.133-0.614-0.332-0.83c-0.232-0.249-0.548-0.415-1.245-0.415h-1.578V4.483z
				 M126.646,9.631c0.781,0,1.212-0.199,1.495-0.515c0.266-0.282,0.415-0.648,0.415-1.063s-0.15-0.781-0.415-1.063
				c-0.282-0.316-0.714-0.515-1.495-0.515h-2.242V9.63L126.646,9.631L126.646,9.631z"/>
			<path class="st0" d="M135.093,1.993v2.408h3.57v1.992h-3.57v3.238h4.899v1.993h-7.14V0h6.975v1.993H135.093z"/>
			<path class="st0" d="M144.469,6.476v5.148h-2.241V0h4.234c1.195,0,1.959,0.332,2.541,0.864c0.631,0.598,1.03,1.444,1.03,2.374
				s-0.399,1.777-1.03,2.374c-0.315,0.299-0.697,0.531-1.162,0.681l4.35,5.33h-2.773l-4.135-5.148L144.469,6.476L144.469,6.476z
				 M146.329,4.483c0.648,0,0.93-0.133,1.129-0.349s0.332-0.548,0.332-0.88c0-0.349-0.133-0.681-0.332-0.897
				s-0.482-0.365-1.129-0.365h-1.86v2.491H146.329z"/>
			<path class="st0" d="M159.956,0v1.993h-3.072v9.631h-2.242V1.993h-3.072V0H159.956z"/>
			<path class="st0" d="M167.204,6.36v5.264h-2.242V6.36L160.977,0h2.557l2.557,4.085L168.632,0h2.557L167.204,6.36z"/>
		</g>
		<g>
			<path class="st0" d="M113.571,22.953l4.234-6.958h1.577v11.624h-2.242v-6.476l-2.79,4.567h-1.561l-2.79-4.567v6.476h-2.241
				V15.996h1.577L113.571,22.953z"/>
			<path class="st0" d="M127.431,15.83c3.587,0,6.061,2.674,6.061,5.978s-2.474,5.978-6.061,5.978s-6.061-2.673-6.061-5.978
				S123.844,15.83,127.431,15.83z M127.431,25.793c2.192,0,3.819-1.793,3.819-3.985s-1.627-3.985-3.819-3.985
				s-3.819,1.793-3.819,3.985C123.612,23.999,125.239,25.793,127.431,25.793z"/>
			<path class="st0" d="M136.937,26.59c-0.963-0.864-1.494-2.092-1.494-3.869v-6.725h2.242v6.891c0,1.063,0.282,1.71,0.764,2.158
				c0.498,0.482,1.195,0.747,1.976,0.747c0.781,0,1.478-0.266,1.976-0.747c0.482-0.448,0.764-1.096,0.764-2.158v-6.891h2.242v6.725
				c0,1.777-0.531,3.006-1.494,3.869c-0.897,0.797-2.175,1.195-3.487,1.195C139.112,27.785,137.834,27.387,136.937,26.59z"/>
			<path class="st0" d="M147.971,15.996h1.578l6.476,7.572v-7.572h2.242V27.62h-1.578l-6.476-7.572v7.572h-2.242V15.996z"/>
			<path class="st0" d="M168.521,15.996v1.993h-3.072v9.631h-2.242v-9.631h-3.072v-1.993
				C160.135,15.996,168.521,15.996,168.521,15.996z"/>
			<path class="st0" d="M168.004,27.619l4.981-11.624h1.578l4.981,11.624h-2.341l-1.096-2.574h-4.666l-1.096,2.574H168.004z
				 M172.288,23.053h2.956l-1.478-3.438L172.288,23.053z"/>
			<path class="st0" d="M181.247,15.996h2.241V27.62h-2.241V15.996z"/>
			<path class="st0" d="M186.106,15.996h1.578l6.476,7.572v-7.572h2.242V27.62h-1.578l-6.476-7.572v7.572h-2.242V15.996z"/>
		</g>
		<g>
			<path class="st0" d="M110.061,38.467v5.148h-2.241V31.991h4.234c1.195,0,1.959,0.332,2.541,0.864
				c0.631,0.598,1.03,1.444,1.03,2.374s-0.399,1.777-1.03,2.374c-0.315,0.299-0.697,0.531-1.162,0.681l4.35,5.33h-2.773
				l-4.135-5.148L110.061,38.467L110.061,38.467z M111.921,36.474c0.648,0,0.93-0.133,1.129-0.349s0.332-0.548,0.332-0.88
				c0-0.349-0.133-0.681-0.332-0.897s-0.481-0.365-1.129-0.365h-1.86v2.491H111.921z"/>
			<path class="st0" d="M121.455,33.983v2.408h3.57v1.992h-3.57v3.238h4.899v1.993h-7.14V31.991h6.974v1.993L121.455,33.983
				L121.455,33.983z"/>
			<path class="st0" d="M129.532,40.509c0.664,0.731,1.677,1.279,2.74,1.279c0.996,0,1.694-0.614,1.694-1.461
				c0-1.494-2.159-1.677-3.72-2.59c-0.913-0.531-1.644-1.328-1.644-2.64c0-2.076,1.909-3.271,3.836-3.271
				c1.179,0,2.275,0.282,3.371,1.096l-1.162,1.66c-0.465-0.432-1.245-0.764-2.009-0.764c-0.847,0-1.793,0.365-1.793,1.262
				c0,1.876,5.364,1.295,5.364,5.214c0,2.059-1.843,3.487-3.936,3.487c-1.561,0-3.006-0.648-4.201-1.744L129.532,40.509z"/>
			<path class="st0" d="M143.532,31.825c3.587,0,6.061,2.674,6.061,5.978s-2.474,5.978-6.061,5.978s-6.061-2.673-6.061-5.978
				S139.946,31.825,143.532,31.825z M143.532,41.788c2.192,0,3.819-1.793,3.819-3.985s-1.627-3.985-3.819-3.985
				s-3.819,1.793-3.819,3.985S141.341,41.788,143.532,41.788z"/>
			<path class="st0" d="M153.899,38.467v5.148h-2.242V31.991h4.234c1.195,0,1.959,0.332,2.541,0.864
				c0.631,0.598,1.03,1.444,1.03,2.374s-0.399,1.777-1.03,2.374c-0.315,0.299-0.697,0.531-1.162,0.681l4.35,5.33h-2.773
				l-4.135-5.148L153.899,38.467L153.899,38.467z M155.759,36.474c0.648,0,0.93-0.133,1.129-0.349s0.332-0.548,0.332-0.88
				c0-0.349-0.133-0.681-0.332-0.897s-0.481-0.365-1.129-0.365h-1.86v2.491H155.759z"/>
			<path class="st0" d="M169.576,31.991v1.993h-3.072v9.631h-2.242v-9.631h-3.072v-1.993
				C161.19,31.991,169.576,31.991,169.576,31.991z"/>
		</g>
	</g>
	<g>
		<g>
			<path class="st0" d="M60.406,19.474c-1.319,0-2.645,0.657-3.941,1.952l-7.531,7.531c-1.393,1.393-3.251,2.16-5.234,2.16
				s-3.841-0.767-5.234-2.16L37.81,28.3c-1.048-1.333-2.559-2.072-4.185-2.072c-1.505,0-2.942,0.651-3.944,1.787l-0.029,0.032
				l-0.034,0.027c-0.143,0.139-5.98,5.967-15.599,15.581h72.375L63.661,20.921C63.631,20.887,62.327,19.474,60.406,19.474z"/>
		</g>
		<path class="st0" d="M10.61,43.656L44.353,9.912c3.219-3.217,8.454-3.217,11.673,0l33.743,33.743h10.61L61.331,4.608
			c-6.143-6.143-16.139-6.143-22.283,0L0,43.656H10.61z"/>
	</g>
</g>
</svg>
