<svg id="Layer_1" data-name="Layer 1" xmlns="http://www.w3.org/2000/svg" viewBox="0 0 312 62"><defs><style>.cls-1{fill:#fff;}</style></defs><title>Updated_logo</title><rect class="cls-1" x="2" y="3.84" width="16.89" height="16.89"/><rect class="cls-1" x="21.23" y="3.84" width="29.47" height="16.89"/><rect class="cls-1" x="2" y="23.02" width="48.7" height="17.26"/><path class="cls-1" d="M67.13,12.59v7.85H82.9v7.81H67.13V40.49H57V4.78H85v7.81Z"/><path class="cls-1" d="M102.84,31H97.33v9.49H87.23V4.78h16.32c9.74,0,15.87,5.05,15.87,13.21a11.87,11.87,0,0,1-7,11.28l7.7,11.22H109.32Zm.1-18.26H97.33V23.2h5.61c4.18,0,6.27-1.94,6.27-5.21S107.12,12.74,102.94,12.74Z"/><path class="cls-1" d="M151.6,32.68v7.81H122.93V4.78h28v7.81h-18v6h15.86v7.54H132.93v6.53Z"/><path class="cls-1" d="M183.32,32.68v7.81H154.66V4.78h28v7.81h-18v6h15.86v7.54H164.66v6.53Z"/><path class="cls-1" d="M186.38,4.78h16.89c11.83,0,19.94,6.89,19.94,17.86s-8.11,17.85-19.94,17.85H186.38Zm16.48,27.65c6.07,0,10.15-3.62,10.15-9.79s-4.08-9.8-10.15-9.8h-6.38V32.43Z"/><path class="cls-1" d="M225,22.64c0-10.72,8.42-18.57,19.85-18.57s19.84,7.85,19.84,18.57S256.31,41.2,244.89,41.2,225,33.35,225,22.64Zm29.49,0c0-6.18-4.24-10.2-9.64-10.2s-9.64,4-9.64,10.2,4.23,10.2,9.64,10.2S254.53,28.81,254.53,22.64Z"/><path class="cls-1" d="M299.72,40.49l-.1-18.93L290.43,37H286l-9.13-14.9V40.49h-9.34V4.78h8.32l12.54,20.61L300.58,4.78h8.32l.1,35.71Z"/><path class="cls-1" d="M58.14,46.06h1.42v8.7h5.38V56h-6.8Z"/><path class="cls-1" d="M66.13,46.14a.89.89,0,0,1,.92-.89.87.87,0,0,1,.92.86.92.92,0,0,1-1.84,0Zm.24,2.33h1.36V56H66.37Z"/><path class="cls-1" d="M71.86,47.81v.66h2.19v1.12H71.89V56H70.53v-6.4H69.25V48.47h1.28V47.8A2.26,2.26,0,0,1,73,45.37a2.59,2.59,0,0,1,1.53.44l-.41,1a1.77,1.77,0,0,0-1-.36C72.27,46.49,71.86,47,71.86,47.81Z"/><path class="cls-1" d="M82,52.68h-6.1a2.55,2.55,0,0,0,2.73,2.2,2.81,2.81,0,0,0,2.17-.9l.75.88a4.1,4.1,0,0,1-7-2.63A3.68,3.68,0,0,1,78.3,48.4,3.62,3.62,0,0,1,82,52.27,2.83,2.83,0,0,1,82,52.68Zm-6.1-1h4.83a2.43,2.43,0,0,0-4.83,0Z"/><path class="cls-1" d="M83.27,55.1a1,1,0,0,1,1-1,.93.93,0,0,1,.94,1,1,1,0,0,1-.94,1A1,1,0,0,1,83.27,55.1Z"/><path class="cls-1" d="M91.15,46.06h1.41v8.7h5.38V56H91.15Z"/><path class="cls-1" d="M99.13,46.14a.9.9,0,0,1,.93-.89.88.88,0,0,1,.92.86.93.93,0,0,1-1.85,0Zm.24,2.33h1.37V56H99.37Z"/><path class="cls-1" d="M111.13,52.23a3.67,3.67,0,0,1-3.81,3.85,3.18,3.18,0,0,1-2.68-1.28V56h-1.31V45.46h1.37V49.6a3.18,3.18,0,0,1,2.62-1.2A3.65,3.65,0,0,1,111.13,52.23Zm-1.38,0a2.54,2.54,0,1,0-2.54,2.65A2.48,2.48,0,0,0,109.75,52.23Z"/><path class="cls-1" d="M119.78,52.68h-6.1a2.54,2.54,0,0,0,2.72,2.2,2.83,2.83,0,0,0,2.18-.9l.75.88a4.1,4.1,0,0,1-7-2.63,3.68,3.68,0,0,1,3.77-3.83,3.63,3.63,0,0,1,3.72,3.87A2.83,2.83,0,0,1,119.78,52.68Zm-6.1-1h4.82a2.43,2.43,0,0,0-4.82,0Z"/><path class="cls-1" d="M125.74,48.4v1.32a1.67,1.67,0,0,0-.31,0,2.25,2.25,0,0,0-2.37,2.54V56h-1.37V48.47H123v1.26A2.87,2.87,0,0,1,125.74,48.4Z"/><path class="cls-1" d="M132,55.55a2.58,2.58,0,0,1-1.64.53,2.15,2.15,0,0,1-2.39-2.36V49.59h-1.27V48.47h1.27V46.82h1.37v1.65h2.15v1.12h-2.15v4.07a1.11,1.11,0,0,0,1.18,1.27,1.7,1.7,0,0,0,1.06-.36Z"/><path class="cls-1" d="M140.12,48.47l-3.65,8.27c-.67,1.59-1.54,2.09-2.68,2.09a2.82,2.82,0,0,1-1.94-.7l.59-1a1.89,1.89,0,0,0,1.35.55c.65,0,1.06-.29,1.43-1.16l.24-.52-3.32-7.51h1.42l2.62,6,2.6-6Z"/><path class="cls-1" d="M140.28,55.1a1,1,0,0,1,1-1,.94.94,0,0,1,.94,1,1,1,0,0,1-.94,1A1,1,0,0,1,140.28,55.1Z"/><path class="cls-1" d="M150.13,47.29h-3.4V46.06h8.21v1.23h-3.4V56h-1.41Z"/><path class="cls-1" d="M162.28,52.68h-6.1a2.54,2.54,0,0,0,2.72,2.2,2.79,2.79,0,0,0,2.17-.9l.75.88a4.1,4.1,0,0,1-7-2.63,3.69,3.69,0,0,1,3.78-3.83,3.63,3.63,0,0,1,3.72,3.87C162.31,52.39,162.29,52.56,162.28,52.68Zm-6.1-1H161a2.43,2.43,0,0,0-4.82,0Z"/><path class="cls-1" d="M163.5,52.23a3.76,3.76,0,0,1,4-3.83,3.36,3.36,0,0,1,3.07,1.6l-1,.67a2.34,2.34,0,0,0-2-1.08,2.65,2.65,0,0,0,0,5.29,2.34,2.34,0,0,0,2-1.08l1,.66a3.38,3.38,0,0,1-3.07,1.62A3.77,3.77,0,0,1,163.5,52.23Z"/><path class="cls-1" d="M179.34,51.66V56H178V51.82c0-1.48-.74-2.2-2-2.2a2.23,2.23,0,0,0-2.38,2.5V56H172.2V45.46h1.36v4.07a3.26,3.26,0,0,1,2.65-1.13A2.92,2.92,0,0,1,179.34,51.66Z"/><path class="cls-1" d="M189,51.66V56h-1.36V51.82c0-1.48-.74-2.2-2-2.2a2.24,2.24,0,0,0-2.39,2.5V56h-1.36V48.47h1.3V49.6a3.25,3.25,0,0,1,2.72-1.2A2.91,2.91,0,0,1,189,51.66Z"/><path class="cls-1" d="M190.87,52.23a3.91,3.91,0,1,1,3.92,3.85A3.74,3.74,0,0,1,190.87,52.23Zm6.44,0a2.53,2.53,0,1,0-2.52,2.65A2.47,2.47,0,0,0,197.31,52.23Z"/><path class="cls-1" d="M200.58,45.46h1.36V56h-1.36Z"/><path class="cls-1" d="M203.84,52.23a3.91,3.91,0,1,1,3.92,3.85A3.74,3.74,0,0,1,203.84,52.23Zm6.44,0a2.53,2.53,0,1,0-2.52,2.65A2.47,2.47,0,0,0,210.28,52.23Z"/><path class="cls-1" d="M220.74,48.47V55c0,2.65-1.35,3.86-3.9,3.86a5.54,5.54,0,0,1-3.59-1.12l.65-1.05a4.64,4.64,0,0,0,2.9,1c1.77,0,2.58-.83,2.58-2.53v-.6a3.41,3.41,0,0,1-2.71,1.17,3.64,3.64,0,1,1,0-7.28,3.44,3.44,0,0,1,2.78,1.23V48.47ZM219.41,52a2.59,2.59,0,1,0-2.59,2.46A2.4,2.4,0,0,0,219.41,52Z"/><path class="cls-1" d="M230,48.47l-3.65,8.27c-.66,1.59-1.53,2.09-2.68,2.09a2.81,2.81,0,0,1-1.93-.7l.58-1a1.91,1.91,0,0,0,1.35.55c.66,0,1.07-.29,1.44-1.16l.24-.52L222,48.47h1.42l2.62,6,2.6-6Z"/><path class="cls-1" d="M230.16,55.1a1,1,0,0,1,1-1,.93.93,0,0,1,.93,1,1,1,0,0,1-.93,1A1,1,0,0,1,230.16,55.1Z"/></svg>